{"title":"The.Borgias.S02E03.HDTV.XviD-Atilla82","uid":7261015,"size":418861492,"categoryP":"video","categoryS":"tv_shows","magnet":"?xt=urn:btih:04d199f9c44c854bda814c634be2b78f765fef8c&amp;dn=The.Borgias.S02E03.HDTV.XviD-Atilla82&amp;tr=udp%3A%2F%2Ftracker.openbittorrent.com%3A80&amp;tr=udp%3A%2F%2Fopen.demonii.com%3A1337&amp;tr=udp%3A%2F%2Ftracker.coppersurfer.tk%3A6969&amp;tr=udp%3A%2F%2Fexodus.desync.com%3A6969","seeders":1,"leechers":0,"uploader":"Atilla82","files":3,"time":1336727162,"description":"The Borgias S02E03 HDTV XviD Atilla82\n\n\n\n\nThe Borgias (2011)\n\nThe saga of a crime family in 1492 Italy.\n &lt;a href=&quot;\nhttp://www.imdb.com/title/tt1582457/&quot; rel=&quot;nofollow&quot; target=&quot;_NEW&quot;&gt;\nhttp://www.imdb.com/title/tt1582457/&lt;/a&gt;\n\n\n\nlanguage: English\n\nscreenshots included in torrent\n\n\n\n\n\nGeneral\nComplete name                            : The.Borgias.S02E03.HDTV.XviD-Atilla82.avi\nFormat                                   : AVI\nFormat/Info                              : Audio Video Interleave\nFile size                                : 399 MiB\nDuration                                 : 55mn 24s\nOverall bit rate                         : 1 008 Kbps\nMovie name                               : The Borgias season 02 episode 03\nDirector                                 : Atilla82\nWriting application                      : VirtualDubMod 1.5.10.2 (build 2540/release)\nWriting library                          : VirtualDubMod build 2540/release\n\nVideo\nID                                       : 0\nFormat                                   : MPEG-4 Visual\nFormat profile                           : Advanced Simple@L5\nFormat settings, BVOP                    : No\nFormat settings, QPel                    : Yes\nFormat settings, GMC                     : No warppoints\nFormat settings, Matrix                  : Default (H.263)\nCodec ID                                 : XVID\nCodec ID/Hint                            : XviD\nDuration                                 : 55mn 23s\nBit rate                                 : 870 Kbps\nWidth                                    : 680 pixels\nHeight                                   : 380 pixels\nDisplay aspect ratio                     : 16:9\nFrame rate                               : 23.976 fps\nColor space                              : YUV\nChroma subsampling                       : 4:2:0\nBit depth                                : 8 bits\nScan type                                : Progressive\nCompression mode                         : Lossy\nBits/(Pixel*Frame)                       : 0.140\nStream size                              : 345 MiB (86%)\nWriting library                          : XviD 64\n\nAudio\nID                                       : 1\nFormat                                   : MPEG Audio\nFormat version                           : Version 1\nFormat profile                           : Layer 3\nCodec ID                                 : 55\nCodec ID/Hint                            : MP3\nDuration                                 : 55mn 24s\nBit rate mode                            : Constant\nBit rate                                 : 128 Kbps\nChannel(s)                               : 2 channels\nSampling rate                            : 48.0 KHz\nCompression mode                         : Lossy\nStream size                              : 50.7 MiB (13%)\nAlignment                                : Aligned on interleaves\nInterleave, duration                     : 42 ms (1.00 video frame)\nInterleave, preload duration             : 504 ms\n\n\nSCREENSHOTS &lt;a href=&quot;\nhttp://www.pohrani.com/f/3H/qv/4Cw8bjeQ/theborgiass02e03screensh.jpg&quot; rel=&quot;nofollow&quot; target=&quot;_NEW&quot;&gt;\nhttp://www.pohrani.com/f/3H/qv/4Cw8bjeQ/theborgiass02e03screensh.jpg&lt;/a&gt;\n\n","torrent":{"xt":"urn:btih:04d199f9c44c854bda814c634be2b78f765fef8c","amp;dn":"The.Borgias.S02E03.HDTV.XviD-Atilla82","amp;tr":["udp%3A%2F%2Ftracker.openbittorrent.com%3A80","udp%3A%2F%2Fopen.demonii.com%3A1337","udp%3A%2F%2Ftracker.coppersurfer.tk%3A6969","udp%3A%2F%2Fexodus.desync.com%3A6969"],"infoHash":"04d199f9c44c854bda814c634be2b78f765fef8c","infoHashBuffer":{"type":"Buffer","data":[4,209,153,249,196,76,133,75,218,129,76,99,75,226,183,143,118,95,239,140]},"announce":[],"urlList":[]}}